<svg width="20" height="20" viewBox="0 0 20 20" fill="none" xmlns="http://www.w3.org/2000/svg">
<path d="M17.6136 10.5056C17.8278 10.3315 17.9349 10.2445 17.9742 10.1409C18.0086 10.05 18.0086 9.95052 17.9742 9.8596C17.9349 9.756 17.8278 9.66895 17.6136 9.49485L10.1797 3.4536C9.81092 3.1539 9.62653 3.00404 9.47041 3.00037C9.33474 2.99718 9.20514 3.0537 9.1194 3.15344C9.02074 3.26821 9.02074 3.49847 9.02074 3.95899V7.53289C7.14736 7.84362 5.43278 8.74364 4.15862 10.095C2.76949 11.5683 2.00108 13.4749 2 15.451V15.9602C2.92089 14.9084 4.07068 14.0578 5.37062 13.4665C6.5167 12.9452 7.75561 12.6365 9.02074 12.5551V16.0415C9.02074 16.502 9.02074 16.7323 9.1194 16.847C9.20514 16.9468 9.33474 17.0033 9.47041 17.0001C9.62653 16.9964 9.81092 16.8466 10.1797 16.5469L17.6136 10.5056Z" fill="white"/>
</svg>
